<?xml version="1.0" encoding="iso-8859-1"?>
<!-- Generator: Adobe Illustrator 16.0.0, SVG Export Plug-In . SVG Version: 6.00 Build 0)  -->
<!DOCTYPE svg PUBLIC "-//W3C//DTD SVG 1.1//EN" "http://www.w3.org/Graphics/SVG/1.1/DTD/svg11.dtd">
<svg version="1.1" id="Capa_1" xmlns="http://www.w3.org/2000/svg" xmlns:xlink="http://www.w3.org/1999/xlink" x="0px" y="0px"
	 width="926.516px" height="926.516px" viewBox="0 0 926.516 926.516" style="enable-background:new 0 0 926.516 926.516;"
	 xml:space="preserve">
<g>
	<path d="M463.258,471.161c-48.547,54.68-119.368,89.13-198.241,89.13c-19.028,0-37.595-2.007-55.487-5.818
		c-7.341,24.298-11.289,50.074-11.289,76.768c0,146.365,118.652,265.018,265.017,265.018s265.017-118.652,265.017-265.017
		c0-26.693-3.947-52.47-11.289-76.768c-17.892,3.812-36.459,5.818-55.486,5.818C582.626,560.292,511.805,525.841,463.258,471.161z"
		/>
	<path d="M407.771,372.042c-7.341-24.298-11.289-50.074-11.289-76.767c0-67.492,25.234-129.097,66.776-175.887
		c-48.547-54.68-119.368-89.13-198.241-89.13C118.652,30.258,0,148.91,0,295.275C0,422.61,89.799,528.971,209.53,554.474
		C237.209,462.86,313.139,392.199,407.771,372.042z"/>
	<path d="M407.771,372.042c11.221,37.138,30.375,70.835,55.487,99.119c25.112-28.285,44.266-61.981,55.487-99.119
		c-17.893-3.812-36.459-5.818-55.487-5.818S425.663,368.23,407.771,372.042z"/>
	<path d="M661.499,30.258c-78.873,0-149.694,34.45-198.241,89.13c41.542,46.79,66.776,108.395,66.776,175.887
		c0,26.693-3.948,52.469-11.289,76.767c94.632,20.157,170.562,90.817,198.241,182.432
		c119.73-25.503,209.529-131.862,209.529-259.199C926.516,148.91,807.864,30.258,661.499,30.258z"/>
</g>
<g>
</g>
<g>
</g>
<g>
</g>
<g>
</g>
<g>
</g>
<g>
</g>
<g>
</g>
<g>
</g>
<g>
</g>
<g>
</g>
<g>
</g>
<g>
</g>
<g>
</g>
<g>
</g>
<g>
</g>
</svg>
