<?xml version="1.0" encoding="iso-8859-1"?>
<!-- Generator: Adobe Illustrator 19.0.0, SVG Export Plug-In . SVG Version: 6.00 Build 0)  -->
<svg version="1.1" id="Layer_1" xmlns="http://www.w3.org/2000/svg" xmlns:xlink="http://www.w3.org/1999/xlink" x="0px" y="0px"
	 viewBox="0 0 290.625 290.625" style="enable-background:new 0 0 290.625 290.625;" xml:space="preserve">
<g>
	<g>
		<g>
			<path d="M281.25,281.25V93.75h-75V0H84.375v93.75h-75v187.5H0v9.375h9.375h75h9.375h103.125h9.375h75h9.375v-9.375H281.25z
				 M84.375,281.25H18.75V103.125h65.625V281.25z M140.625,281.25h-23.438v-70.313h23.438V281.25z M173.438,281.25H150v-70.313
				h23.438V281.25z M196.875,93.75v187.5h-14.062v-70.313h4.688v-9.375h-4.688h-75h-4.688v9.375h4.688v70.313H93.75V93.75V9.375
				h103.125V93.75z M271.875,281.25H206.25V103.125h65.625V281.25z"/>
			<path d="M131.25,103.125h28.125V75H187.5V46.875h-28.125V18.75H131.25v28.125h-28.125V75h28.125V103.125z M112.5,65.625V56.25
				h28.125V28.125H150V56.25h28.125v9.375H150V93.75h-9.375V65.625H112.5z"/>
			<path d="M140.625,112.5h-37.5v28.125h37.5V112.5z M131.25,131.25H112.5v-9.375h18.75V131.25z"/>
			<path d="M150,140.625h37.5V112.5H150V140.625z M159.375,121.875h18.75v9.375h-18.75V121.875z"/>
			<path d="M140.625,150h-37.5v28.125h37.5V150z M131.25,168.75H112.5v-9.375h18.75V168.75z"/>
			<path d="M150,178.125h37.5V150H150V178.125z M159.375,159.375h18.75v9.375h-18.75V159.375z"/>
			<path d="M257.813,112.5h-37.5v28.125h37.5V112.5z M248.438,131.25h-18.75v-9.375h18.75V131.25z"/>
			<path d="M257.813,150h-37.5v28.125h37.5V150z M248.438,168.75h-18.75v-9.375h18.75V168.75z"/>
			<path d="M257.813,187.5h-37.5v28.125h37.5V187.5z M248.438,206.25h-18.75v-9.375h18.75V206.25z"/>
			<path d="M257.813,225h-37.5v28.125h37.5V225z M248.438,243.75h-18.75v-9.375h18.75V243.75z"/>
			<path d="M70.313,112.5h-37.5v28.125h37.5V112.5z M60.938,131.25h-18.75v-9.375h18.75V131.25z"/>
			<path d="M70.313,150h-37.5v28.125h37.5V150z M60.938,168.75h-18.75v-9.375h18.75V168.75z"/>
			<path d="M70.313,187.5h-37.5v28.125h37.5V187.5z M60.938,206.25h-18.75v-9.375h18.75V206.25z"/>
			<path d="M70.313,225h-37.5v28.125h37.5V225z M60.938,243.75h-18.75v-9.375h18.75V243.75z"/>
		</g>
	</g>
</g>
<g>
</g>
<g>
</g>
<g>
</g>
<g>
</g>
<g>
</g>
<g>
</g>
<g>
</g>
<g>
</g>
<g>
</g>
<g>
</g>
<g>
</g>
<g>
</g>
<g>
</g>
<g>
</g>
<g>
</g>
</svg>
