<?xml version="1.0"?>
<svg xmlns="http://www.w3.org/2000/svg" xmlns:xlink="http://www.w3.org/1999/xlink" version="1.1" id="Capa_1" x="0px" y="0px" width="512px" height="512px" viewBox="0 0 31.98 31.979" style="enable-background:new 0 0 31.98 31.979;" xml:space="preserve" class=""><g><g>
	<g>
		<path d="M5.592,0C2.774,0,0.49,2.284,0.49,5.102v21.774c0,2.818,2.284,5.104,5.102,5.104h20.794c2.818,0,5.104-2.285,5.104-5.104    V5.102C31.49,2.284,29.205,0,26.386,0H5.592z M23.136,23.393c0,0.705-0.572,1.277-1.277,1.277h-1.363    c-0.705,0-1.275-0.572-1.275-1.277v-5.967h-6.461v5.967c0,0.705-0.572,1.277-1.277,1.277h-1.363c-0.705,0-1.276-0.572-1.276-1.277    V8.586c0-0.706,0.571-1.277,1.276-1.277h1.362c0.706,0,1.277,0.571,1.277,1.277v5.381h6.46V8.586c0-0.706,0.571-1.277,1.276-1.277    h1.362c0.706,0,1.277,0.571,1.277,1.277v14.806H23.136z" data-original="#000000" class="active-path" data-old_color="#f1f1f1" fill="#f1f1f1"/>
	</g>
</g></g> </svg>
