<?xml version="1.0"?>
<svg xmlns="http://www.w3.org/2000/svg" xmlns:xlink="http://www.w3.org/1999/xlink" version="1.1" id="Capa_1" x="0px" y="0px" viewBox="0 0 508 508" style="enable-background:new 0 0 508 508;" xml:space="preserve" width="512px" height="512px" class=""><g><g>
	<g>
		<path d="M322.95,0H65.55v508h376.9V119.5L322.95,0z M327.75,28l86.7,86.7h-86.7V28z M426.05,491.6H81.95V16.4h229.4v114.7h114.7    V491.6z" data-original="#000000" class="active-path" data-old_color="#f1f1f1" fill="#f1f1f1"/>
	</g>
</g><g>
	<g>
		<rect x="376.95" y="442.5" width="16.4" height="16.4" data-original="#000000" class="active-path" data-old_color="#f1f1f1" fill="#f1f1f1"/>
	</g>
</g><g>
	<g>
		<rect x="114.75" y="393.3" width="278.6" height="16.4" data-original="#000000" class="active-path" data-old_color="#f1f1f1" fill="#f1f1f1"/>
	</g>
</g><g>
	<g>
		<rect x="114.75" y="344.1" width="278.6" height="16.4" data-original="#000000" class="active-path" data-old_color="#f1f1f1" fill="#f1f1f1"/>
	</g>
</g><g>
	<g>
		<rect x="114.75" y="295" width="278.6" height="16.4" data-original="#000000" class="active-path" data-old_color="#f1f1f1" fill="#f1f1f1"/>
	</g>
</g><g>
	<g>
		<rect x="344.15" y="442.5" width="16.4" height="16.4" data-original="#000000" class="active-path" data-old_color="#f1f1f1" fill="#f1f1f1"/>
	</g>
</g><g>
	<g>
		<rect x="311.45" y="442.5" width="16.4" height="16.4" data-original="#000000" class="active-path" data-old_color="#f1f1f1" fill="#f1f1f1"/>
	</g>
</g><g>
	<g>
		<path d="M174.35,139.9c-2.6-2.7-5.8-5.3-9.8-7.6c7.9-1.1,13.9-3.9,17.8-8.3c4-4.4,6-10,6-16.8c0-5.3-1.3-10.1-3.9-14.2    c-2.6-4.1-8.2-12.1-31.5-11.1h-38.3V172h18.2v-37.6h0.1c0,0,14.1-1.6,18.3,4.8c1.4,2.1,22.7,32.9,22.7,32.9h21.8    C195.75,172.1,176.95,142.6,174.35,139.9z M133.05,120.1V97.2c1.691,0.007,25.952,0.107,27.4,0.3c8.4,1.3,9.3,7.8,9.3,10.9    c0,2.7-0.7,8-6.9,10.6C160.15,120.1,133.05,120.1,133.05,120.1z" data-original="#000000" class="active-path" data-old_color="#f1f1f1" fill="#f1f1f1"/>
	</g>
</g><g>
	<g>
		<polygon points="253.95,174.9 281.95,131.1 260.85,131.1 243.15,160.1 225.05,131.1 203.85,131.1 231.75,174.2 200.95,221.2     222.75,221.2 242.75,190.1 262.75,221.2 284.75,221.2   " data-original="#000000" class="active-path" data-old_color="#f1f1f1" fill="#f1f1f1"/>
	</g>
</g></g> </svg>
