<?xml version="1.0"?>
<svg xmlns="http://www.w3.org/2000/svg" xmlns:xlink="http://www.w3.org/1999/xlink" version="1.1" id="Layer_1" x="0px" y="0px" viewBox="0 0 512 512" style="enable-background:new 0 0 512 512;" xml:space="preserve" width="512px" height="512px" class=""><g><g>
	<g>
		<g>
			<path d="M212.745,241.135c-1.72,22.81,7.096,53.042,21.645,53.058c1.869,0,8.162-0.671,10.62-9.283     c1.497-5.209,0.943-9.931,1.349-14.811c0.512-5.063,1.712-11.863,6.587-13.312v-0.001c7.999-2.34,11.494,3.398,12.525,11.736     c0.708,5.277-0.106,10.135,1.354,15.777c2.807,10.951,13.148,13.212,20.56,4.769c7.18-8.178,13.424-27.31,11.87-47.933     c38.504-31.574,23.55-95.441-21.6-95.196c-6.061-0.114-14.119,1.701-21.654,5.772c-16.979-9.174-37.354-7.452-51.165,6.121h0.001     C182.988,179.16,187.069,220.081,212.745,241.135z M206.349,186.246c0.362-1.906,0.767-3.431,1.347-5.182l0.001,0.001     c3.982-11.724,13.521-20.051,26.113-20.127c16.096,0.123,18.869,10.715,26.335,5.768c5.317-3.527,11.613-5.805,18.216-5.767     c31.769,0.297,38.561,49.916,8.73,70.595c-2.305,1.598-3.525,4.348-3.165,7.128c1.686,13.024-0.529,24.269-3.221,31.714     c-2.466-38.842-41.919-36.699-48.258-8.383c-0.531,2.421-0.923,4.928-1.153,8.385c-2.692-7.445-4.909-18.689-3.221-31.715     c0.36-2.781-0.86-5.531-3.165-7.129C211.132,221.986,203.183,203.499,206.349,186.246z" data-original="#000000" class="active-path" data-old_color="#f1f1f1" fill="#f1f1f1"/>
			<path d="M448.947,146.238c4.143,0,7.501-3.357,7.501-7.501v-40.21c0-19.039-15.489-34.529-34.528-34.529h-86.116     c-2.04-8.595-9.761-15.015-18.969-15.015h-14.217C302.617,18.548,280.094,0,256,0c-23.433,0-46.617,17.811-46.617,48.981h-14.216     c-9.208,0-16.929,6.42-18.968,15.015H90.081c-19.039,0-34.528,15.49-34.528,34.529v378.945C55.553,496.51,71.042,512,90.081,512     h331.837c19.039,0,34.528-15.49,34.528-34.529V162.74c0-4.143-3.357-7.501-7.501-7.501c-4.143,0-7.501,3.357-7.501,7.501v314.731     c0,10.768-8.76,19.527-19.526,19.527H90.081c-10.767,0-19.526-8.76-19.526-19.527V98.526c0-10.768,8.76-19.527,19.526-19.527     h85.573v15.03H93.084c-4.144,0-7.501,3.357-7.501,7.501v372.938c0,4.144,3.357,7.501,7.501,7.501h240.117     c4.144,0,7.501-3.357,7.501-7.501c0-4.143-3.357-7.501-7.501-7.501H100.585V109.031l76.573-0.002     c2.945,7.047,9.907,12.013,18.009,12.013h121.666c8.102,0,15.063-4.966,18.008-12.011h76.573v357.936h-53.542     c-4.144,0-7.501,3.357-7.501,7.501c0,4.144,3.357,7.501,7.501,7.501h61.043c4.144,0,7.501-3.357,7.501-7.501V101.53     c0-4.143-3.357-7.501-7.501-7.501l-82.568-0.002V78.998h85.572c10.767,0,19.526,8.76,19.526,19.527v40.21     C441.446,142.879,444.803,146.238,448.947,146.238z M321.345,101.527c0,2.488-2.024,4.512-4.512,4.512H195.167     c-2.487,0-4.512-2.023-4.512-4.512c0-12.835,0-19.946,0-33.031c0-2.487,2.023-4.513,4.512-4.513h21.717     c4.144,0,7.501-3.357,7.501-7.501v-9.865c0-17.433,14.183-31.615,31.615-31.615c17.432,0,31.615,14.183,31.615,31.615v9.865     c0,4.143,3.358,7.501,7.501,7.501h21.718c2.487,0,4.512,2.025,4.512,4.513C321.345,81.581,321.345,88.69,321.345,101.527z" data-original="#000000" class="active-path" data-old_color="#f1f1f1" fill="#f1f1f1"/>
			<path d="M256,27.089c-10.897,0-19.764,8.865-19.764,19.764S245.102,66.617,256,66.617c10.898,0,19.765-8.866,19.765-19.764     S266.897,27.089,256,27.089z M256,51.615c-2.626,0-4.763-2.136-4.763-4.763c0-2.625,2.136-4.762,4.763-4.762     c2.626,0,4.763,2.136,4.763,4.762C260.762,49.479,258.626,51.615,256,51.615z" data-original="#000000" class="active-path" data-old_color="#f1f1f1" fill="#f1f1f1"/>
			<path d="M160.605,325.506c0,4.144,3.357,7.501,7.501,7.501h212.227c4.143,0,7.501-3.357,7.501-7.501     c0-4.143-3.357-7.501-7.501-7.501H168.106C163.962,318.005,160.605,321.363,160.605,325.506z" data-original="#000000" class="active-path" data-old_color="#f1f1f1" fill="#f1f1f1"/>
			<path d="M168.106,369.546h212.227c4.143,0,7.501-3.357,7.501-7.501c0-4.143-3.357-7.501-7.501-7.501H168.106     c-4.143,0-7.501,3.357-7.501,7.501C160.605,366.188,163.962,369.546,168.106,369.546z" data-original="#000000" class="active-path" data-old_color="#f1f1f1" fill="#f1f1f1"/>
			<path d="M168.106,406.085h212.227c4.143,0,7.501-3.358,7.501-7.501c0-4.143-3.357-7.501-7.501-7.501H168.106     c-4.143,0-7.501,3.357-7.501,7.501C160.605,402.727,163.962,406.085,168.106,406.085z" data-original="#000000" class="active-path" data-old_color="#f1f1f1" fill="#f1f1f1"/>
			<path d="M168.106,442.623h212.227c4.143,0,7.501-3.357,7.501-7.501c0-4.143-3.357-7.501-7.501-7.501H168.106     c-4.143,0-7.501,3.358-7.501,7.501C160.605,439.266,163.962,442.623,168.106,442.623z" data-original="#000000" class="active-path" data-old_color="#f1f1f1" fill="#f1f1f1"/>
			<path d="M143.08,318.005h-10.01c-4.144,0-7.501,3.357-7.501,7.501c0,4.144,3.357,7.501,7.501,7.501h10.01     c4.144,0,7.501-3.357,7.501-7.501C150.581,321.363,147.222,318.005,143.08,318.005z" data-original="#000000" class="active-path" data-old_color="#f1f1f1" fill="#f1f1f1"/>
			<path d="M143.08,354.544h-10.01c-4.144,0-7.501,3.357-7.501,7.501c0,4.144,3.357,7.501,7.501,7.501h10.01     c4.144,0,7.501-3.357,7.501-7.501C150.581,357.901,147.222,354.544,143.08,354.544z" data-original="#000000" class="active-path" data-old_color="#f1f1f1" fill="#f1f1f1"/>
			<path d="M143.08,391.083h-10.01c-4.144,0-7.501,3.357-7.501,7.501c0,4.143,3.357,7.501,7.501,7.501h10.01     c4.144,0,7.501-3.358,7.501-7.501C150.581,394.441,147.222,391.083,143.08,391.083z" data-original="#000000" class="active-path" data-old_color="#f1f1f1" fill="#f1f1f1"/>
			<path d="M143.08,427.621h-10.01c-4.144,0-7.501,3.358-7.501,7.501c0,4.144,3.357,7.501,7.501,7.501h10.01     c4.144,0,7.501-3.357,7.501-7.501C150.581,430.98,147.222,427.621,143.08,427.621z" data-original="#000000" class="active-path" data-old_color="#f1f1f1" fill="#f1f1f1"/>
		</g>
	</g>
</g></g> </svg>
