<?xml version="1.0"?>
<svg xmlns="http://www.w3.org/2000/svg" xmlns:xlink="http://www.w3.org/1999/xlink" version="1.1" id="Capa_1" x="0px" y="0px" viewBox="0 0 400.896 400.896" style="enable-background:new 0 0 400.896 400.896;" xml:space="preserve" width="512px" height="512px" class=""><g><g>
	<g>
		<path d="M241.664,204.8h-1.536v-4.608c38.4,0,56.832-17.92,57.856-18.944c1.024-1.024,1.536-3.072,1.536-4.608    c-0.512-1.536-1.536-3.072-3.072-3.584c-16.384-6.656-24.064-34.816-24.576-37.376c2.56-7.68,4.096-15.872,4.096-24.064    c0-16.896-5.632-33.28-15.872-46.592V5.12c0-3.072-2.048-5.12-5.12-5.12H143.872c-3.072,0-5.12,2.048-5.12,5.12v59.904    c-10.24,13.312-15.872,29.696-15.872,46.592c0,8.704,1.536,17.408,4.608,25.6c-2.56,9.216-10.752,30.72-24.064,36.352    c-1.536,0.512-2.56,2.048-3.072,3.584c-0.512,1.536,0,3.584,1.536,4.608c1.024,1.024,19.456,18.944,57.856,18.944v4.096h-1.024    c-51.2,0-94.72,50.176-94.72,109.568v81.408c0,3.072,2.048,5.12,5.12,5.12h262.656c3.072,0,5.12-2.048,5.12-5.12v-81.408    C336.384,254.976,292.864,204.8,241.664,204.8z M285.184,178.176c-7.168,4.608-22.528,11.776-45.056,11.776v-13.824    c10.752-6.656,19.456-15.872,25.6-26.624C268.8,158.208,275.456,170.496,285.184,178.176z M148.992,10.24h100.352v50.176H148.992    V10.24z M147.968,70.144h69.12c-28.672,20.992-69.12,30.72-82.944,33.28C135.168,91.648,140.288,79.872,147.968,70.144z     M232.96,70.656h17.92c9.216,11.776,14.336,26.112,14.336,40.96c0,28.672-17.92,53.76-45.056,62.464    c-22.016,5.632-41.472,0-41.472,0c-26.112-8.704-44.032-32.256-45.056-59.904C146.432,111.616,200.704,100.352,232.96,70.656z     M229.888,181.248v25.6l-1.024,0.512c-17.92,10.752-39.936,10.752-57.856,0l-1.024-0.512v-25.6    c2.048,1.024,4.096,1.536,5.632,2.048c0.512,0,10.24,3.072,23.552,3.072c7.168,0,14.848-0.512,23.552-3.072c0,0,0,0,0.512,0    C225.28,182.784,227.84,182.272,229.888,181.248z M114.688,178.176c9.216-7.168,15.36-18.944,19.456-28.16    c6.144,10.752,14.848,19.456,25.6,26.112v13.312C136.704,189.952,121.856,182.784,114.688,178.176z M73.728,390.656v-76.288    c0-52.736,39.424-99.328,84.48-99.328h5.12l2.56,1.536c10.752,6.144,22.528,9.216,33.792,9.216    c11.776,0,23.552-3.072,34.304-9.728l2.048-1.536h5.12c45.056,0,84.48,46.592,84.48,99.328v76.8H73.728z" data-original="#000000" class="active-path" data-old_color="#f1f1f1" fill="#f1f1f1"/>
	</g>
</g><g>
	<g>
		<path d="M211.456,29.696H204.8v-6.144c0-3.072-2.048-5.12-5.12-5.12c-3.072,0-5.12,2.048-5.12,5.12v6.144h-6.144    c-3.072,0-5.12,2.048-5.12,5.12c0,3.072,2.048,5.12,5.12,5.12h6.144v6.144c0,3.072,2.048,5.12,5.12,5.12    c3.072,0,5.12-2.048,5.12-5.12v-6.144h6.144c3.072,0,5.12-2.048,5.12-5.12C216.576,31.744,214.016,29.696,211.456,29.696z" data-original="#000000" class="active-path" data-old_color="#f1f1f1" fill="#f1f1f1"/>
	</g>
</g><g>
	<g>
		<path d="M222.208,312.32H204.8v-16.896c0-3.072-2.048-5.12-5.12-5.12c-3.072,0-5.12,2.048-5.12,5.12v16.896h-16.896    c-3.072,0-5.12,2.048-5.12,5.12c0,3.072,2.048,5.12,5.12,5.12h16.896v16.896c0,3.072,2.048,5.12,5.12,5.12    c3.072,0,5.12-2.048,5.12-5.12V322.56h16.896c3.072,0,5.12-2.048,5.12-5.12C227.328,314.88,224.768,312.32,222.208,312.32z" data-original="#000000" class="active-path" data-old_color="#f1f1f1" fill="#f1f1f1"/>
	</g>
</g></g> </svg>
